<svg width="25" height="24" viewBox="0 0 25 24" fill="none" xmlns="http://www.w3.org/2000/svg">
<path id="LinkedinIcon" d="M19.98 0H5.97998C3.21898 0 0.97998 2.239 0.97998 5V19C0.97998 21.761 3.21898 24 5.97998 24H19.98C22.742 24 24.98 21.761 24.98 19V5C24.98 2.239 22.742 0 19.98 0ZM8.97998 19H5.97998V8H8.97998V19ZM7.47998 6.732C6.51398 6.732 5.72998 5.942 5.72998 4.968C5.72998 3.994 6.51398 3.204 7.47998 3.204C8.44598 3.204 9.22998 3.994 9.22998 4.968C9.22998 5.942 8.44698 6.732 7.47998 6.732ZM20.98 19H17.98V13.396C17.98 10.028 13.98 10.283 13.98 13.396V19H10.98V8H13.98V9.765C15.376 7.179 20.98 6.988 20.98 12.241V19Z" fill="#1E1E1E"/>
</svg>
