<svg width="172" height="79" viewBox="0 0 172 79" fill="none" xmlns="http://www.w3.org/2000/svg">
<g id="Sucheta">
<path id="Vector 1" d="M42.9195 12.9002C40.8901 0.897692 39.8306 -1.682 35.635 13.5545C31.3738 29.0293 30.2158 38.3374 24.9482 53.7719C23.2495 58.7493 19.2617 72.3118 12.1676 75.5817C5.20959 78.789 0.477154 61.3327 4.44691 60.0095" stroke="#1E1E1E" stroke-width="6" stroke-linecap="round"/>
<path id="Vector 2" d="M39.7787 43.5215C39.4177 46.5898 37.3129 51.859 39.0808 54.7318C40.9879 57.8309 46.4639 45.8542 46.8451 45.0918" stroke="#1E1E1E" stroke-width="6" stroke-linecap="round"/>
<path id="Vector 3" d="M66.4743 45.8764C66.2406 44.0063 63.4557 46.0006 62.8103 46.5743C61.5071 47.7327 56.5268 52.9252 58.0121 54.9056C59.648 57.0868 68.3963 53.4655 70.4001 52.9428" stroke="#1E1E1E" stroke-width="6" stroke-linecap="round"/>
<path id="Vector 4" d="M86.8883 23.1074C84.0479 37.3955 80.532 51.5213 77.5101 65.7675C76.4919 70.5674 78.0706 67.4417 79.5602 65.1569C83.0296 59.8351 86.3074 54.3919 89.8981 49.1484C92.41 45.4802 93.4084 43.3298 95.525 47.6217C96.0949 48.7773 97.5022 58.2122 99.4914 57.1161" stroke="#1E1E1E" stroke-width="6" stroke-linecap="round"/>
<path id="Vector 5" d="M106.188 51.4732C108.201 51.4732 112.605 51.7446 110.768 48.3762C108.254 43.7686 106.826 51.7215 106.711 53.0871C106.403 56.7348 106.089 61.795 109.764 64.1229C115.122 67.516 120.754 63.9352 125.816 62.4654" stroke="#1E1E1E" stroke-width="6" stroke-linecap="round"/>
<path id="Vector 6" d="M135.239 21.6377C133.544 34.2739 131.781 47.625 133.494 60.372C133.743 62.2296 134.756 61.4025 136.024 60.8955" stroke="#1E1E1E" stroke-width="6" stroke-linecap="round"/>
<path id="Vector 7" d="M128.957 42.0518C136.82 41.4639 144.633 41.4274 152.512 41.2666" stroke="#1E1E1E" stroke-width="6" stroke-linecap="round"/>
<path id="Vector 8" d="M154.867 52.2585C154.867 51.7425 155.252 48.4199 154.387 48.4199C150.893 48.4199 146.74 52.9832 147.19 56.3587C147.849 61.303 152.901 60.6207 155.129 57.0566C156.052 55.5791 155.907 55.4537 157.092 56.7513C160.568 60.5591 164.413 59.7111 169 60.11" stroke="#1E1E1E" stroke-width="6" stroke-linecap="round"/>
</g>
</svg>
